<svg width="18" height="20" viewBox="0 0 18 20" fill="none" xmlns="http://www.w3.org/2000/svg">
<g id="phone-in-talk">
<path id="Shape" fill-rule="evenodd" clip-rule="evenodd" d="M17 13.855C15.8 13.855 14.6 13.6445 13.4 13.2235C13.1 13.1183 12.7 13.2235 12.4 13.434L10.2 15.7492C7.4 14.2759 5.1 11.7502 3.6 8.80353L5.8 6.48829C6.1 6.17258 6.2 5.75162 6 5.43591C5.7 4.27829 5.5 3.01543 5.5 1.75258C5.5 1.12115 5.1 0.700195 4.5 0.700195H1C0.4 0.700195 0 1.12115 0 1.75258C0 11.645 7.6 19.6431 17 19.6431C17.6 19.6431 18 19.2221 18 18.5907V14.9073C18 14.2759 17.6 13.855 17 13.855ZM16 10.1716H18C18 4.90972 14 0.700195 9 0.700195V2.80496C12.9 2.80496 16 6.06734 16 10.1716ZM12 10.1716H14C14 7.22496 11.8 4.90972 9 4.90972V7.01448C10.7 7.01448 12 8.38258 12 10.1716Z" fill="white"/>
</g>
</svg>
